<svg xmlns="http://www.w3.org/2000/svg" width="79.629" height="63.638" viewBox="0 0 79.629 63.638"><g transform="translate(-1177.003 -277.402)"><g transform="translate(1177.996 278.402)"><g transform="translate(0.004)"><path d="M4.146,104.138A3.5,3.5,0,0,1,1.955,100.4c.087-3.13.065-6.259,0-9.389a4.059,4.059,0,0,1,1.418-3.272c1.926-1.762,3.777-3.592,5.65-5.4a4.152,4.152,0,0,0,.055-4.586q-3.9-3.917-7.814-7.831c-1.685-1.7-1.685-3.158.026-4.875,2.6-2.612,5.229-5.207,7.817-7.831a3.929,3.929,0,0,1,3-1.228q5.3.043,10.592,0a3.934,3.934,0,0,1,3,1.23c2.581,2.622,5.207,5.212,7.809,7.824,1.712,1.716,1.721,3.178.031,4.877-2.289,2.3-4.466,4.74-6.933,6.837-1.8,1.531-1.784,3.329-1.389,5.185.607,2.855,1.473,5.657,2.294,8.462a2.708,2.708,0,0,0,.908,1.2c2.814,2.321,5.657,4.605,8.486,6.907,2.465,2,2.273,4.153-.5,5.631H34.965a12.208,12.208,0,0,1-1.2-.766c-3.43-2.773-6.873-5.537-10.25-8.366a4.478,4.478,0,0,1-1.249-1.972c-.573-1.748-1.035-3.536-1.459-5.33-.173-.741-.522-1-1.237-.908a8.026,8.026,0,0,1-.963,0c-1.926,0-4.056-.508-5.713.161-1.685.686-2.968,2.489-4.333,3.89a2.829,2.829,0,0,0-.763,1.724c-.082,2.6-.1,5.214,0,7.817A3.478,3.478,0,0,1,5.6,104.138ZM7.425,67.332l2.208,2.691V65.231Zm20.024.241-2.285-2.347v4.651Z" transform="translate(-0.004 -42.51)" fill="#fe5400" stroke="#0c4853" stroke-width="2"/><path d="M55.254,0c.286.125.571.26.864.376A5.777,5.777,0,1,1,51.99.39c.3-.116.563-.26.857-.39Z" transform="translate(-36.665)" fill="#fe5400" stroke="#0c4853" stroke-width="2"/></g></g><g transform="translate(1196.996 278.402)"><g transform="translate(0.004)"><path d="M4.146,104.138A3.5,3.5,0,0,1,1.955,100.4c.087-3.13.065-6.259,0-9.389a4.059,4.059,0,0,1,1.418-3.272c1.926-1.762,3.777-3.592,5.65-5.4a4.152,4.152,0,0,0,.055-4.586q-3.9-3.917-7.814-7.831c-1.685-1.7-1.685-3.158.026-4.875,2.6-2.612,5.229-5.207,7.817-7.831a3.929,3.929,0,0,1,3-1.228q5.3.043,10.592,0a3.934,3.934,0,0,1,3,1.23c2.581,2.622,5.207,5.212,7.809,7.824,1.712,1.716,1.721,3.178.031,4.877-2.289,2.3-4.466,4.74-6.933,6.837-1.8,1.531-1.784,3.329-1.389,5.185.607,2.855,1.473,5.657,2.294,8.462a2.708,2.708,0,0,0,.908,1.2c2.814,2.321,5.657,4.605,8.486,6.907,2.465,2,2.273,4.153-.5,5.631H34.965a12.208,12.208,0,0,1-1.2-.766c-3.43-2.773-6.873-5.537-10.25-8.366a4.478,4.478,0,0,1-1.249-1.972c-.573-1.748-1.035-3.536-1.459-5.33-.173-.741-.522-1-1.237-.908a8.026,8.026,0,0,1-.963,0c-1.926,0-4.056-.508-5.713.161-1.685.686-2.968,2.489-4.333,3.89a2.829,2.829,0,0,0-.763,1.724c-.082,2.6-.1,5.214,0,7.817A3.478,3.478,0,0,1,5.6,104.138ZM7.425,67.332l2.208,2.691V65.231Zm20.024.241-2.285-2.347v4.651Z" transform="translate(-0.004 -42.51)" fill="#fe5400" stroke="#0c4853" stroke-width="2"/><path d="M55.254,0c.286.125.571.26.864.376A5.777,5.777,0,1,1,51.99.39c.3-.116.563-.26.857-.39Z" transform="translate(-36.665)" fill="#fe5400" stroke="#0c4853" stroke-width="2"/></g></g><g transform="translate(1216.996 278.402)"><g transform="translate(0.004)"><path d="M4.146,104.138A3.5,3.5,0,0,1,1.955,100.4c.087-3.13.065-6.259,0-9.389a4.059,4.059,0,0,1,1.418-3.272c1.926-1.762,3.777-3.592,5.65-5.4a4.152,4.152,0,0,0,.055-4.586q-3.9-3.917-7.814-7.831c-1.685-1.7-1.685-3.158.026-4.875,2.6-2.612,5.229-5.207,7.817-7.831a3.929,3.929,0,0,1,3-1.228q5.3.043,10.592,0a3.934,3.934,0,0,1,3,1.23c2.581,2.622,5.207,5.212,7.809,7.824,1.712,1.716,1.721,3.178.031,4.877-2.289,2.3-4.466,4.74-6.933,6.837-1.8,1.531-1.784,3.329-1.389,5.185.607,2.855,1.473,5.657,2.294,8.462a2.708,2.708,0,0,0,.908,1.2c2.814,2.321,5.657,4.605,8.486,6.907,2.465,2,2.273,4.153-.5,5.631H34.965a12.208,12.208,0,0,1-1.2-.766c-3.43-2.773-6.873-5.537-10.25-8.366a4.478,4.478,0,0,1-1.249-1.972c-.573-1.748-1.035-3.536-1.459-5.33-.173-.741-.522-1-1.237-.908a8.026,8.026,0,0,1-.963,0c-1.926,0-4.056-.508-5.713.161-1.685.686-2.968,2.489-4.333,3.89a2.829,2.829,0,0,0-.763,1.724c-.082,2.6-.1,5.214,0,7.817A3.478,3.478,0,0,1,5.6,104.138ZM7.425,67.332l2.208,2.691V65.231Zm20.024.241-2.285-2.347v4.651Z" transform="translate(-0.004 -42.51)" fill="#fe5400" stroke="#0c4853" stroke-width="2"/><path d="M55.254,0c.286.125.571.26.864.376A5.777,5.777,0,1,1,51.99.39c.3-.116.563-.26.857-.39Z" transform="translate(-36.665)" fill="#fe5400" stroke="#0c4853" stroke-width="2"/></g></g></g></svg>